<svg width="127" height="98" viewBox="0 0 127 98" fill="none" xmlns="http://www.w3.org/2000/svg">
<path d="M93.5753 27.3529C92.7332 26.1502 92.2814 24.7175 92.2814 23.2492V1.46389C92.2814 0.673607 91.6408 0.032959 90.8505 0.032959H71.4924C70.7021 0.032959 70.0614 0.673608 70.0614 1.46389V28.7227C70.0614 30.191 70.5132 31.6238 71.3554 32.8265L98.3738 71.412C98.7188 71.9048 98.7189 72.5606 98.3739 73.0534L97.5232 74.2688C97.2554 74.6513 96.8178 74.8791 96.3509 74.8791H29.6059C29.1389 74.8791 28.7013 74.6513 28.4336 74.2687L27.6488 73.1475C27.304 72.6548 27.304 71.9989 27.649 71.5063L54.7338 32.8239C55.5759 31.6212 56.0276 30.1885 56.0276 28.7203V1.46389C56.0276 0.67361 55.387 0.032959 54.5967 0.032959H35.2386C34.4483 0.032959 33.8076 0.673608 33.8076 1.46389V23.2492C33.8076 24.7175 33.3559 26.1502 32.5138 27.3529L0.517544 73.0493C-0.172529 74.0349 -0.172513 75.3468 0.517584 76.3323L14.2437 95.9347C14.7257 96.623 15.5132 97.033 16.3535 97.033H109.736C110.576 97.033 111.363 96.623 111.845 95.9347L125.571 76.3323C126.262 75.3468 126.262 74.0349 125.572 73.0493L93.5753 27.3529Z" fill="#67D697"/>
</svg>
